<svg width="52" height="52" viewBox="0 0 52 52" fill="none" xmlns="http://www.w3.org/2000/svg">
<circle cx="26" cy="26" r="26" fill="#5ECE7B"/>
<path d="M37.4736 19.4456C37.0186 18.8896 36.3109 18.5517 35.5785 18.5517H20.1907L19.711 16.7641C19.4326 15.7249 18.4732 15 17.3608 15H14.7837C14.3544 15 14 15.3379 14 15.7494C14 16.16 14.3534 16.4989 14.7837 16.4989H17.3608C17.7398 16.4989 18.0685 16.7405 18.1692 17.1029L21.2517 28.8466C21.53 29.8857 22.4894 30.6106 23.6018 30.6106H33.6833C34.7947 30.6106 35.7808 29.8857 36.0335 28.8466L37.9286 21.4042C38.1053 20.7265 37.9543 20.0016 37.4736 19.4456L37.4736 19.4456ZM36.3879 21.0643L34.4927 28.5067C34.3921 28.8691 34.0634 29.1107 33.6844 29.1107H23.6018C23.2228 29.1107 22.8941 28.8691 22.7935 28.5067L20.5953 20.0743H35.5796C35.8323 20.0743 36.085 20.1952 36.237 20.3886C36.388 20.5812 36.463 20.8228 36.388 21.0645L36.3879 21.0643Z" fill="white"/>
<path d="M24.1332 31.5749C22.6932 31.5749 21.5059 32.7104 21.5059 34.0874C21.5059 35.4644 22.6933 36.5998 24.1332 36.5998C25.5733 36.6008 26.7606 35.4653 26.7606 34.0881C26.7606 32.7109 25.5732 31.5747 24.1332 31.5747V31.5749ZM24.1332 35.0786C23.5519 35.0786 23.0968 34.6434 23.0968 34.0875C23.0968 33.5316 23.5519 33.0964 24.1332 33.0964C24.7146 33.0964 25.1696 33.5316 25.1696 34.0875C25.1687 34.6198 24.689 35.0786 24.1332 35.0786Z" fill="white"/>
<path d="M32.8251 31.5752C31.3851 31.5752 30.1978 32.7107 30.1978 34.0876C30.1978 35.4646 31.3852 36.6001 32.8251 36.6001C34.2651 36.6001 35.4525 35.4646 35.4525 34.0876C35.4279 32.7115 34.2651 31.5752 32.8251 31.5752ZM32.8251 35.0788C32.2438 35.0788 31.7887 34.6437 31.7887 34.0877C31.7887 33.5318 32.2438 33.0967 32.8251 33.0967C33.4065 33.0967 33.8615 33.5318 33.8615 34.0877C33.8615 34.6201 33.3809 35.0788 32.8251 35.0788Z" fill="white"/>
</svg>
