<svg width="120" height="120" viewBox="0 0 120 120" fill="none" xmlns="http://www.w3.org/2000/svg">
<path d="M59.4992 111C34.9617 111 15 86.694 15 56.8179C15 55.262 16.2436 54 17.7788 54C19.314 54 20.5577 55.2611 20.5577 56.8179C20.5577 83.5865 38.0269 105.364 59.5 105.364C80.9728 105.364 98.4423 83.5865 98.4423 56.8179C98.4423 55.262 99.6859 54 101.221 54C102.756 54 104 55.2611 104 56.8179C103.999 86.694 84.0364 111 59.4992 111Z" fill="#5ECE7B"/>
<path d="M85.8425 56C85.1154 56 84.3882 55.7284 83.8323 55.1843C82.7226 54.0969 82.7226 52.3338 83.8323 51.2465L98.5622 36.8158C99.0948 36.2938 99.8181 36 100.572 36C101.326 36 102.049 36.293 102.582 36.8158L117.168 51.1064C118.277 52.1937 118.277 53.9568 117.168 55.0442C116.057 56.1307 114.258 56.1316 113.148 55.0442L100.571 42.7233L87.8521 55.1843C87.2968 55.7284 86.5697 56 85.8425 56Z" fill="#5ECE7B"/>
</svg>
